<svg width="71" height="27" viewBox="0 0 71 27" fill="none" xmlns="http://www.w3.org/2000/svg">
<g clip-path="url(#clip0_142_385)">
<path d="M7.4317 1.33712H9.67655V12.477H7.4317V7.86193H3.17139V12.477H0.910156V1.33712H3.17139V5.76126H7.4317V1.33712ZM21.4585 11.0288C20.3007 12.1428 18.8915 12.6998 17.231 12.6998C15.5706 12.6998 14.1614 12.1428 13.0035 11.0288C11.8565 9.90424 11.283 8.53032 11.283 6.90708C11.283 5.28383 11.8565 3.91521 13.0035 2.80122C14.1614 1.67662 15.5706 1.11432 17.231 1.11432C18.8915 1.11432 20.3007 1.67662 21.4585 2.80122C22.6165 3.91521 23.1954 5.28383 23.1954 6.90708C23.1954 8.53032 22.6165 9.90424 21.4585 11.0288ZM14.5929 9.53292C15.303 10.2119 16.1823 10.5514 17.231 10.5514C18.2797 10.5514 19.1591 10.2119 19.8691 9.53292C20.5792 8.84331 20.9342 7.96803 20.9342 6.90708C20.9342 5.84613 20.5792 4.97085 19.8691 4.28124C19.1591 3.59163 18.2797 3.24682 17.231 3.24682C16.1823 3.24682 15.303 3.59163 14.5929 4.28124C13.8829 4.97085 13.5278 5.84613 13.5278 6.90708C13.5278 7.96803 13.8829 8.84331 14.5929 9.53292ZM34.436 11.0288C33.278 12.1428 31.8688 12.6998 30.2084 12.6998C28.5481 12.6998 27.1389 12.1428 25.9809 11.0288C24.8339 9.90424 24.2604 8.53032 24.2604 6.90708C24.2604 5.28383 24.8339 3.91521 25.9809 2.80122C27.1389 1.67662 28.5481 1.11432 30.2084 1.11432C31.8688 1.11432 33.278 1.67662 34.436 2.80122C35.5939 3.91521 36.1729 5.28383 36.1729 6.90708C36.1729 8.53032 35.5939 9.90424 34.436 11.0288ZM27.5703 9.53292C28.2804 10.2119 29.1598 10.5514 30.2084 10.5514C31.2571 10.5514 32.1365 10.2119 32.8466 9.53292C33.5566 8.84331 33.9116 7.96803 33.9116 6.90708C33.9116 5.84613 33.5566 4.97085 32.8466 4.28124C32.1365 3.59163 31.2571 3.24682 30.2084 3.24682C29.1598 3.24682 28.2804 3.59163 27.5703 4.28124C26.8603 4.97085 26.5053 5.84613 26.5053 6.90708C26.5053 7.96803 26.8603 8.84331 27.5703 9.53292ZM48.9865 1.33712V12.477H46.7416V5.252L43.5136 10.4241H43.2514L40.0234 5.26792V12.477H37.7622V1.33712H40.089L43.3825 6.60471L46.6597 1.33712H48.9865ZM58.4973 12.477L57.8091 10.4719H53.2374L52.5492 12.477H50.1077L54.1223 1.33712H56.9242L60.9551 12.477H58.4973ZM53.9584 8.41892H57.1045L55.5314 3.86747L53.9584 8.41892ZM68.7051 1.33712H70.9663V12.477H69.2458L64.3301 5.66577V12.477H62.0689V1.33712H63.7894L68.7051 8.13247V1.33712Z" fill="#F7F9FD"/>
<path d="M4.75393 16.7281C6.11111 16.7281 7.23103 17.2041 8.11367 18.1563C9.00581 19.099 9.45187 20.2565 9.45187 21.6287C9.45187 23.0009 9.00581 24.1631 8.11367 25.1152C7.23103 26.0579 6.11111 26.5294 4.75393 26.5294H0.910156V16.7281H4.75393ZM4.75393 25.6052C5.84537 25.6052 6.7375 25.2226 7.43033 24.4571C8.13265 23.6916 8.48381 22.7489 8.48381 21.6287C8.48381 20.5086 8.13265 19.5658 7.43033 18.8004C6.7375 18.0349 5.84537 17.6522 4.75393 17.6522H1.90669V25.6052H4.75393ZM11.1563 16.7281H12.1528V26.5294H11.1563V16.7281ZM23.9613 21.8668V22.3708C23.9613 23.5843 23.52 24.6111 22.6373 25.4512C21.7547 26.282 20.5731 26.6974 19.0925 26.6974C17.5835 26.6974 16.3355 26.2073 15.3484 25.2272C14.3614 24.2471 13.8678 23.0475 13.8678 21.6287C13.8678 20.2099 14.3614 19.0104 15.3484 18.0303C16.3355 17.0501 17.5835 16.5601 19.0925 16.5601C20.0132 16.5601 20.8578 16.7795 21.6266 17.2181C22.3953 17.6568 22.9885 18.2403 23.4061 18.9684L22.5235 19.4724C22.2103 18.875 21.7453 18.3989 21.1283 18.0443C20.5114 17.6896 19.8328 17.5122 19.0925 17.5122C17.8493 17.5122 16.8338 17.9089 16.046 18.7023C15.2583 19.4958 14.8644 20.4712 14.8644 21.6287C14.8644 22.7862 15.2583 23.7616 16.046 24.5551C16.8338 25.3486 17.8493 25.7453 19.0925 25.7453C20.2125 25.7453 21.1094 25.4699 21.7832 24.9192C22.4571 24.3591 22.8415 23.6496 22.9363 22.7909H18.9786V21.8668H23.9613ZM25.6705 16.7281H26.6671V26.5294H25.6705V16.7281ZM35.2155 16.7281V17.6522H32.1547V26.5294H31.1582V17.6522H28.0974V16.7281H35.2155ZM42.5647 26.5294L41.6394 24.121H36.913L35.9876 26.5294H34.9341L38.7637 16.7281H39.7887L43.6182 26.5294H42.5647ZM37.2689 23.1969H41.2835L39.2762 17.9462L37.2689 23.1969ZM45.8943 25.6052H50.4499V26.5294H44.8978V16.7281H45.8943V25.6052Z" fill="#F7F9FD"/>
</g>
<defs>
<clipPath id="clip0_142_385">
<rect width="70.0562" height="26.0674" fill="white" transform="translate(0.910156 0.629211)"/>
</clipPath>
</defs>
</svg>
