<svg width="43" height="16" viewBox="0 0 43 16" fill="none" xmlns="http://www.w3.org/2000/svg">
<g clip-path="url(#clip0_10_1010)">
<path d="M4.00288 0.433139H5.38075V7.27075H4.00288V4.43802H1.38793V7.27075H0V0.433139H1.38793V3.14865H4.00288V0.433139ZM12.6125 6.38186C11.9018 7.06562 11.0368 7.4075 10.0176 7.4075C8.99849 7.4075 8.13355 7.06562 7.4228 6.38186C6.71877 5.69158 6.36676 4.84828 6.36676 3.85194C6.36676 2.85561 6.71877 2.01556 7.4228 1.3318C8.13355 0.641522 8.99849 0.296387 10.0176 0.296387C11.0368 0.296387 11.9018 0.641522 12.6125 1.3318C13.3232 2.01556 13.6785 2.85561 13.6785 3.85194C13.6785 4.84828 13.3232 5.69158 12.6125 6.38186ZM8.39837 5.46366C8.83424 5.88043 9.37395 6.08882 10.0176 6.08882C10.6613 6.08882 11.2011 5.88043 11.6369 5.46366C12.0727 5.04039 12.2906 4.50315 12.2906 3.85194C12.2906 3.20074 12.0727 2.6635 11.6369 2.24022C11.2011 1.81694 10.6613 1.6053 10.0176 1.6053C9.37395 1.6053 8.83424 1.81694 8.39837 2.24022C7.96257 2.6635 7.74464 3.20074 7.74464 3.85194C7.74464 4.50315 7.96257 5.04039 8.39837 5.46366ZM20.5779 6.38186C19.8672 7.06562 19.0022 7.4075 17.9831 7.4075C16.964 7.4075 16.099 7.06562 15.3883 6.38186C14.6842 5.69158 14.3322 4.84828 14.3322 3.85194C14.3322 2.85561 14.6842 2.01556 15.3883 1.3318C16.099 0.641522 16.964 0.296387 17.9831 0.296387C19.0022 0.296387 19.8672 0.641522 20.5779 1.3318C21.2887 2.01556 21.644 2.85561 21.644 3.85194C21.644 4.84828 21.2887 5.69158 20.5779 6.38186ZM16.3638 5.46366C16.7996 5.88043 17.3394 6.08882 17.9831 6.08882C18.6268 6.08882 19.1665 5.88043 19.6023 5.46366C20.0381 5.04039 20.2561 4.50315 20.2561 3.85194C20.2561 3.20074 20.0381 2.6635 19.6023 2.24022C19.1665 1.81694 18.6268 1.6053 17.9831 1.6053C17.3394 1.6053 16.7996 1.81694 16.3638 2.24022C15.928 2.6635 15.7101 3.20074 15.7101 3.85194C15.7101 4.50315 15.928 5.04039 16.3638 5.46366ZM29.5089 0.433139V7.27075H28.131V2.83607L26.1497 6.01067H25.9888L24.0075 2.84584V7.27075H22.6195V0.433139H24.0477L26.0692 3.66635L28.0807 0.433139H29.5089ZM35.3466 7.27075L34.9242 6.03998H32.1181L31.6957 7.27075H30.1971L32.6612 0.433139H34.3811L36.8552 7.27075H35.3466ZM32.5606 4.7799H34.4917L33.5262 1.98625L32.5606 4.7799ZM41.6121 0.433139H43V7.27075H41.944L38.9267 3.09004V7.27075H37.5388V0.433139H38.5948L41.6121 4.60408V0.433139Z" fill="#F7F9FD"/>
<path d="M2.35928 9.88096C3.19231 9.88096 3.87971 10.1732 4.42147 10.7576C4.96906 11.3362 5.24285 12.0467 5.24285 12.8889C5.24285 13.7312 4.96906 14.4445 4.42147 15.0289C3.87971 15.6076 3.19231 15.8969 2.35928 15.8969H0V9.88096H2.35928ZM2.35928 15.3297C3.0292 15.3297 3.57678 15.0948 4.00204 14.625C4.43312 14.1551 4.64866 13.5765 4.64866 12.8889C4.64866 12.2014 4.43312 11.6227 4.00204 11.1529C3.57678 10.6831 3.0292 10.4482 2.35928 10.4482H0.611665V15.3297H2.35928ZM6.28901 9.88096H6.90068V15.8969H6.28901V9.88096ZM14.1486 13.035V13.3444C14.1486 14.0893 13.8778 14.7195 13.336 15.2352C12.7942 15.7451 12.069 16.0001 11.1602 16.0001C10.234 16.0001 9.46798 15.6993 8.8621 15.0977C8.25628 14.4961 7.95334 13.7598 7.95334 12.8889C7.95334 12.0181 8.25628 11.2818 8.8621 10.6802C9.46798 10.0786 10.234 9.77783 11.1602 9.77783C11.7253 9.77783 12.2437 9.91249 12.7156 10.1818C13.1875 10.451 13.5516 10.8091 13.8079 11.256L13.2661 11.5654C13.0739 11.1987 12.7884 10.9065 12.4098 10.6888C12.0311 10.4711 11.6146 10.3622 11.1602 10.3622C10.3971 10.3622 9.77381 10.6057 9.29027 11.0927C8.80678 11.5798 8.56501 12.1785 8.56501 12.8889C8.56501 13.5994 8.80678 14.1981 9.29027 14.6851C9.77381 15.1722 10.3971 15.4156 11.1602 15.4156C11.8476 15.4156 12.3981 15.2466 12.8117 14.9086C13.2254 14.5648 13.4613 14.1294 13.5195 13.6023H11.0903V13.035H14.1486ZM15.1978 9.88096H15.8094V15.8969H15.1978V9.88096ZM21.0564 9.88096V10.4482H19.1777V15.8969H18.566V10.4482H16.6873V9.88096H21.0564ZM25.5673 15.8969L24.9993 14.4187H22.0983L21.5303 15.8969H20.8837L23.2342 9.88096H23.8634L26.2139 15.8969H25.5673ZM22.3167 13.8515H24.7809L23.5488 10.6287L22.3167 13.8515ZM27.611 15.3297H30.4071V15.8969H26.9993V9.88096H27.611V15.3297Z" fill="#F7F9FD"/>
</g>
<defs>
<clipPath id="clip0_10_1010">
<rect width="43" height="16" fill="white"/>
</clipPath>
</defs>
</svg>
