<svg width="175" height="149" viewBox="0 0 175 149" fill="none" xmlns="http://www.w3.org/2000/svg">
<path fill-rule="evenodd" clip-rule="evenodd" d="M131.312 0.5H119.772V12.0024H131.312V0.5ZM104.266 15.9336C104.241 15.7784 104.106 15.6645 103.948 15.6645C103.79 15.6645 103.656 15.7784 103.63 15.9336L97.8159 51.1194L62.5167 56.915C62.361 56.9406 62.2467 57.0748 62.2467 57.2321C62.2467 57.3894 62.361 57.5236 62.5167 57.5492L76.547 59.8528L69.2243 61.055C69.0686 61.0806 68.9544 61.2148 68.9544 61.3721C68.9544 61.5294 69.0686 61.6636 69.2243 61.6892L98.332 66.4683L103.63 98.5306C103.656 98.6858 103.79 98.7997 103.948 98.7997C104.106 98.7997 104.241 98.6858 104.266 98.5306L106.96 82.2299L110.338 102.671C110.363 102.826 110.498 102.94 110.656 102.94C110.814 102.94 110.948 102.826 110.974 102.671L116.788 67.4849L152.087 61.6892C152.243 61.6636 152.357 61.5294 152.357 61.3721C152.357 61.2148 152.243 61.0806 152.087 61.055L138.057 58.7515L145.38 57.5492C145.536 57.5236 145.65 57.3894 145.65 57.2321C145.65 57.0748 145.536 56.9406 145.38 56.915L116.272 52.1359L110.974 20.0736C110.948 19.9184 110.814 19.8045 110.656 19.8045C110.498 19.8045 110.363 19.9184 110.338 20.0736L107.644 36.3744L104.266 15.9336ZM98.4145 51.4512L103.948 17.9631L109.482 51.4512C109.505 51.5871 109.611 51.6937 109.748 51.7161L143.344 57.2321L109.748 62.7481C109.611 62.7705 109.505 62.877 109.482 63.013L103.948 96.5011L98.4145 63.013C98.392 62.877 98.2851 62.7705 98.1488 62.7481L64.5528 57.2321L98.1488 51.7161C98.2851 51.6937 98.392 51.5871 98.4145 51.4512ZM11.7932 79.4229L6.10741 80.3565C5.95168 80.382 5.83741 80.5162 5.83741 80.6736C5.83741 80.8309 5.95168 80.9651 6.10741 80.9906L31.1925 85.1093L35.791 112.938C35.8167 113.093 35.9513 113.207 36.1092 113.207C36.267 113.207 36.4016 113.093 36.4273 112.938L38.742 98.9301L41.6285 116.398C41.6541 116.553 41.7888 116.667 41.9466 116.667C42.1044 116.667 42.239 116.553 42.2647 116.398L47.2881 85.9979L77.7858 80.9906C77.9415 80.9651 78.0557 80.8309 78.0557 80.6736C78.0557 80.5162 77.9415 80.382 77.7858 80.3565L66.2625 78.4645L71.9483 77.531C72.1041 77.5054 72.2183 77.3712 72.2183 77.2139C72.2183 77.0566 72.1041 76.9224 71.9483 76.8968L46.8633 72.7782L42.2647 44.9495C42.239 44.7942 42.1044 44.6803 41.9466 44.6803C41.7888 44.6803 41.6541 44.7942 41.6285 44.9495L39.3137 58.9573L36.4273 41.4898C36.4016 41.3346 36.267 41.2207 36.1092 41.2207C35.9513 41.2207 35.8167 41.3346 35.791 41.4898L30.7676 71.8895L0.269996 76.8968C0.114264 76.9224 0 77.0566 0 77.2139C0 77.3712 0.114264 77.5054 0.269996 77.531L11.7932 79.4229ZM36.1092 43.5193L31.3663 72.2213C31.3438 72.3573 31.2369 72.4638 31.1005 72.4862L2.30605 77.2139L31.1005 81.9416C31.2369 81.9639 31.3438 82.0705 31.3663 82.2064L36.1092 110.908L40.8521 82.2064C40.8745 82.0705 40.9814 81.9639 41.1178 81.9416L69.9123 77.2139L41.1178 72.4862C40.9814 72.4638 40.8745 72.3573 40.8521 72.2213L36.1092 43.5193ZM139.65 130.872L152.777 140.872L150.213 144.229L137.048 134.258L133.398 148.5L113.358 113.574L152.489 123.654L139.65 130.872ZM13.9235 15.9859H31.0353V30.2511H13.9235V15.9859ZM157.888 83.7076H175V97.9729H157.888V83.7076Z" fill="#11181C"/>
</svg>
