<svg width="75" height="76" viewBox="0 0 75 76" fill="none" xmlns="http://www.w3.org/2000/svg">
<path d="M30.3637 19.25H44.6429C44.3414 17.9303 44.0106 16.6855 43.6507 15.5287C41.9647 10.1064 39.7826 6.75 37.5 6.75C35.2174 6.75 33.0386 10.1064 31.3493 15.5287C30.9895 16.6822 30.6587 17.9303 30.3572 19.25H30.3637Z" fill="#11181C"/>
<path d="M30.0263 54.0714H44.9739C45.8467 49.6412 46.3711 44.4564 46.4287 38.8928H28.5715C28.6291 44.4564 29.1535 49.6412 30.0263 54.0714Z" fill="#11181C"/>
<path d="M22.5838 15.868C21.8457 16.9215 21.1619 18.052 20.5356 19.25H28.444C28.7795 17.7212 29.1534 16.2888 29.5656 14.972C30.5242 11.8887 31.7 9.38679 33.0356 7.64282C29.0191 8.91467 25.4149 11.8244 22.587 15.8712L22.5838 15.868Z" fill="#11181C"/>
<path d="M16.0715 38.8928C16.2004 44.4658 17.3786 49.6568 19.3394 54.0714H27.6787C26.8397 49.6005 26.337 44.422 26.2836 38.8928H16.0747H16.0715Z" fill="#11181C"/>
<path d="M19.3402 21.0358C17.379 25.71 16.2004 31.2064 16.0715 37.1072H26.2832C26.3366 31.2528 26.8395 25.7697 27.6787 21.0358H19.3371H19.3402Z" fill="#11181C"/>
<path d="M44.9739 21.0358H30.0263C29.1535 25.7266 28.6291 31.2163 28.5715 37.1072H46.4287C46.3711 31.2163 45.8467 25.7266 44.9739 21.0358Z" fill="#11181C"/>
<path d="M46.884 19.25H55.3572C54.6862 18.0523 53.9536 16.9253 53.1628 15.8689C50.1295 11.8265 46.2677 8.91431 41.9644 7.64282C43.3954 9.38631 44.6553 11.8876 45.6823 14.97C46.1205 16.2896 46.5245 17.7216 46.884 19.2467V19.25Z" fill="#11181C"/>
<path d="M61.2336 37.1072H68.7499C68.5616 31.2064 66.8051 25.7067 63.896 21.0358H58.0356C59.9577 25.7863 61.1103 31.2627 61.2336 37.1072Z" fill="#11181C"/>
<path d="M47.3215 54.0714H55.6609C57.6216 49.6568 58.7998 44.4658 58.9287 38.8928H48.7198C48.6664 44.422 48.1636 49.6005 47.3247 54.0714H47.3215Z" fill="#11181C"/>
<path d="M54.3038 14.3699C55.318 15.8697 56.2397 17.5032 57.059 19.2501H62.5C61.6081 18.0249 60.6401 16.8684 59.5995 15.7839C56.6262 12.6952 53.0649 10.2174 49.1072 8.53577C51.02 10.135 52.7644 12.1015 54.3038 14.3699Z" fill="#11181C"/>
<path d="M55.6631 21.0358H47.3215C48.1607 25.773 48.6636 31.2528 48.717 37.1072H58.9287C58.7998 31.2031 57.6212 25.71 55.66 21.0358H55.6631Z" fill="#11181C"/>
<path d="M53.1628 60.1287C53.9502 59.0753 54.6862 57.9448 55.3572 56.75H46.884C46.5245 58.2788 46.124 59.7112 45.6823 61.028C44.6553 64.1112 43.3954 66.6132 41.9644 68.3571C46.2677 67.0853 50.1295 64.1755 53.1628 60.1287Z" fill="#11181C"/>
<path d="M54.3038 61.2217C52.7677 63.305 51.02 65.1081 49.1072 66.5714C53.0649 65.0326 56.6229 62.7574 59.5995 59.9252C60.6401 58.9308 61.6114 57.8703 62.5 56.75H57.059C56.2397 58.3518 55.318 59.8497 54.3038 61.2249V61.2217Z" fill="#11181C"/>
<path d="M44.6364 56.75H30.3572C30.6587 58.0701 30.9895 59.3152 31.3493 60.4691C33.0354 65.8961 35.2174 69.25 37.5 69.25C39.7826 69.25 41.9615 65.8928 43.6507 60.4691C44.0106 59.3152 44.3414 58.0701 44.6429 56.75H44.6364Z" fill="#11181C"/>
<path d="M58.0356 54.0714H63.896C66.8051 49.6568 68.5616 44.4658 68.7499 38.8928H61.2336C61.107 44.4126 59.9577 49.588 58.0356 54.0714Z" fill="#11181C"/>
<path d="M13.7662 38.8928H6.25C6.43831 44.4658 8.19479 49.66 11.1039 54.0714H16.9643C15.0422 49.588 13.8896 44.4126 13.7662 38.8928Z" fill="#11181C"/>
<path d="M20.6963 14.3699C22.2325 12.098 23.9801 10.1316 25.8929 8.53577C21.9351 10.214 18.3771 12.6952 15.4006 15.7839C14.3599 16.8684 13.3887 18.0249 12.5 19.2501H17.941C18.7603 17.5032 19.6821 15.8697 20.6963 14.3699Z" fill="#11181C"/>
<path d="M28.4461 56.75H20.5356C21.1621 57.948 21.846 59.0753 22.5843 60.1287C25.4161 64.1755 29.0181 67.0885 33.0356 68.3571C31.6997 66.6132 30.5235 64.1112 29.5647 61.028C29.1556 59.708 28.7784 58.2756 28.4429 56.75H28.4461Z" fill="#11181C"/>
<path d="M16.9643 21.0358H11.1039C8.19154 25.71 6.43831 31.2064 6.25 37.1072H13.7662C13.8928 31.2627 15.0422 25.7829 16.9643 21.0358Z" fill="#11181C"/>
<path d="M20.6963 61.2249C19.6821 59.8497 18.7603 58.3518 17.941 56.75H12.5C13.392 57.8734 14.3599 58.934 15.4006 59.9252C18.3738 62.7574 21.9351 65.0326 25.8929 66.5714C23.9801 65.1081 22.2358 63.305 20.6963 61.2217V61.2249Z" fill="#11181C"/>
<path d="M72.8316 38.0016H70.6599C70.6599 47.166 66.9527 55.4409 60.9472 61.4466C54.9385 67.4491 46.664 71.1564 37.5 71.1596C28.336 71.1596 20.0615 67.4523 14.0528 61.4466C8.05057 55.4377 4.34344 47.1628 4.34019 38.0016C4.34019 28.8372 8.04732 20.5623 14.0528 14.5534C20.0615 8.54767 28.336 4.84355 37.5 4.8403C46.664 4.8403 54.9385 8.54767 60.9472 14.5534C66.9494 20.5623 70.6566 28.8372 70.6599 38.0016H75C75 17.29 58.2139 0.5 37.5 0.5C16.7893 0.5 0.00324619 17.2868 0 38.0016C0 58.7132 16.7861 75.5 37.5 75.5C58.2107 75.5 74.9967 58.7132 75 38.0016H72.8283H72.8316Z" fill="#11181C"/>
</svg>
