<svg width="30" height="30" viewBox="0 0 30 30" fill="none" xmlns="http://www.w3.org/2000/svg">
<path d="M30 15C30 6.71573 23.2843 0 15 0C6.71573 0 0 6.71573 0 15C0 23.2843 6.71573 30 15 30C23.2843 30 30 23.2843 30 15Z" fill="#F7F9FD"/>
<path d="M23 15.692V17.471C23 19.941 21.5 21 19.25 21H11.75C9.5 21 8 19.941 8 17.471V12.529C8 10.059 9.5 9 11.75 9H19.25C21.5 9 23 10.059 23 12.529" stroke="#1E2433" stroke-width="1.2" stroke-linecap="round" stroke-linejoin="round"/>
<path d="M19.5 12.5195L17 15.0195C16.6002 15.4136 16.0614 15.6344 15.5 15.6344C14.9386 15.6344 14.3998 15.4136 14 15.0195L11.5 12.5195" stroke="#1E2433" stroke-width="1.2" stroke-linecap="round" stroke-linejoin="round"/>
</svg>
