<svg width="30" height="30" viewBox="0 0 30 30" fill="none" xmlns="http://www.w3.org/2000/svg">
<path d="M30 15C30 6.71573 23.2843 0 15 0C6.71573 0 0 6.71573 0 15C0 23.2843 6.71573 30 15 30C23.2843 30 30 23.2843 30 15Z" fill="#F7F9FD"/>
<path d="M21.4412 16.3666C21.6688 15.2938 21.6248 14.1812 21.3131 13.1297C21.0015 12.0783 20.4321 11.1214 19.6567 10.3459C18.8813 9.57036 17.9244 9.00086 16.873 8.68908C15.8216 8.37731 14.709 8.33314 13.6362 8.56058C12.93 8.11881 12.0948 7.9295 11.2671 8.02356C10.4394 8.11762 9.66808 8.4895 9.07899 9.07847C8.48989 9.66745 8.11787 10.4387 8.02364 11.2664C7.92942 12.0941 8.11856 12.9293 8.5602 13.6356C8.33261 14.7084 8.37664 15.821 8.68828 16.8724C8.99992 17.9239 9.5693 18.8808 10.3447 19.6563C11.1201 20.4318 12.077 21.0013 13.1284 21.3131C14.1798 21.6249 15.2924 21.669 16.3652 21.4416C16.9512 21.8076 17.6283 22.0016 18.3192 22.0016C18.4185 22.0016 18.5185 21.9976 18.6192 21.9896C19.249 21.9379 19.8549 21.7251 20.3787 21.3716C20.9025 21.018 21.3265 20.5357 21.6099 19.9709C21.8934 19.4061 22.0267 18.7779 21.9972 18.1467C21.9676 17.5154 21.7762 16.9024 21.4412 16.3666ZM20.3142 20.3146C19.8456 20.7854 19.2256 21.0754 18.5638 21.133C17.902 21.1907 17.2411 21.0123 16.6982 20.6296C16.6481 20.5944 16.591 20.5702 16.5308 20.5589C16.4706 20.5475 16.4087 20.5491 16.3492 20.5636C15.3954 20.7945 14.3983 20.7763 13.4536 20.5108C12.5089 20.2453 11.6483 19.7414 10.9545 19.0475C10.2607 18.3536 9.75688 17.4929 9.49152 16.5481C9.22616 15.6034 9.20815 14.6063 9.4392 13.6526C9.45407 13.5926 9.45588 13.5301 9.44449 13.4694C9.4331 13.4087 9.40879 13.3511 9.3732 13.3006C8.99533 12.7572 8.82049 12.0982 8.87925 11.439C8.93801 10.7797 9.22663 10.1621 9.69465 9.69404C10.1627 9.22602 10.7803 8.9374 11.4396 8.87864C12.0988 8.81987 12.7578 8.99471 13.3012 9.37258C13.3513 9.40781 13.4084 9.43192 13.4686 9.4433C13.5288 9.45468 13.5907 9.45307 13.6502 9.43858C14.6039 9.20753 15.601 9.22555 16.5458 9.4909C17.4905 9.75626 18.3512 10.26 19.0451 10.9539C19.7391 11.6477 20.243 12.5083 20.5085 13.453C20.7739 14.3977 20.7921 15.3948 20.5612 16.3486C20.5468 16.4081 20.5452 16.47 20.5566 16.5302C20.568 16.5904 20.592 16.6474 20.6272 16.6976C21.0105 17.2404 21.1893 17.9013 21.132 18.5633C21.0747 19.2253 20.785 19.8457 20.3142 20.3146Z" fill="#1E2433" stroke="#1E2433" stroke-width="0.2"/>
<path d="M15.087 14.5026C14.146 14.1846 13.08 13.8236 13.08 13.2906C13.08 12.6106 13.96 12.0356 15.001 12.0356C16.042 12.0356 16.922 12.6106 16.922 13.2906C16.922 13.4114 16.97 13.5272 17.0554 13.6126C17.1408 13.6981 17.2567 13.7461 17.3775 13.7461C17.4983 13.7461 17.6141 13.6981 17.6996 13.6126C17.785 13.5272 17.833 13.4114 17.833 13.2906C17.8242 12.9753 17.739 12.6669 17.5847 12.3918C17.4304 12.1168 17.2115 11.8833 16.947 11.7116C16.3699 11.329 15.6928 11.125 15.0005 11.125C14.3081 11.125 13.6311 11.329 13.054 11.7116C12.7894 11.8833 12.5706 12.1168 12.4163 12.3918C12.2619 12.6669 12.1767 12.9753 12.168 13.2906C12.183 13.5865 12.2791 13.8725 12.4458 14.1175C12.6124 14.3625 12.8433 14.5569 13.113 14.6796C13.6496 14.9617 14.2122 15.1914 14.793 15.3656C15.839 15.7196 16.921 16.0856 16.921 16.7116C16.921 17.3916 16.041 17.9666 15 17.9666C13.959 17.9666 13.079 17.3916 13.079 16.7116C13.079 16.5908 13.031 16.4749 12.9456 16.3895C12.8601 16.304 12.7443 16.2561 12.6235 16.2561C12.5027 16.2561 12.3868 16.304 12.3014 16.3895C12.216 16.4749 12.168 16.5908 12.168 16.7116C12.1767 17.0268 12.2619 17.3353 12.4163 17.6103C12.5706 17.8854 12.7894 18.1188 13.054 18.2906C13.6311 18.6731 14.3081 18.8771 15.0005 18.8771C15.6928 18.8771 16.3699 18.6731 16.947 18.2906C17.2115 18.1188 17.4304 17.8854 17.5847 17.6103C17.739 17.3353 17.8242 17.0268 17.833 16.7116C17.834 15.4316 16.375 14.9376 15.087 14.5026Z" fill="#1E2433" stroke="#1E2433" stroke-width="0.2"/>
</svg>
