<svg width="30" height="30" viewBox="0 0 30 30" fill="none" xmlns="http://www.w3.org/2000/svg">
<path d="M30 15C30 6.71573 23.2843 0 15 0C6.71573 0 0 6.71573 0 15C0 23.2843 6.71573 30 15 30C23.2843 30 30 23.2843 30 15Z" fill="#F7F9FD"/>
<path d="M15.5005 6.50007C14.1041 6.4942 12.7307 6.85545 11.5179 7.54763C10.3051 8.23981 9.29554 9.2386 8.59039 10.4439C7.88524 11.6492 7.50928 13.0187 7.50017 14.415C7.49106 15.8114 7.84914 17.1857 8.5385 18.4001L7.5135 22.0601C7.49729 22.1186 7.49666 22.1803 7.51167 22.2391C7.52667 22.2979 7.5568 22.3517 7.59905 22.3953C7.6413 22.4389 7.69421 22.4706 7.75253 22.4874C7.81085 22.5042 7.87255 22.5055 7.9315 22.4911L11.7475 21.5451C12.8194 22.1163 14.0075 22.4357 15.2214 22.479C16.4352 22.5223 17.643 22.2883 18.7529 21.7948C19.8628 21.3014 20.8456 20.5614 21.6267 19.6312C22.4078 18.701 22.9665 17.6049 23.2605 16.4264C23.5545 15.2479 23.576 14.0178 23.3233 12.8297C23.0707 11.6417 22.5506 10.5268 21.8025 9.56985C21.0544 8.61292 20.098 7.83909 19.006 7.30716C17.914 6.77524 16.7152 6.49922 15.5005 6.50007ZM15.5005 7.20007C16.6152 7.20129 17.7148 7.45777 18.715 7.94983C19.7152 8.44189 20.5894 9.15647 21.2706 10.0388C21.9519 10.9211 22.422 11.9477 22.645 13.0398C22.8679 14.132 22.8378 15.2607 22.557 16.3394C22.2761 17.4181 21.752 18.4182 21.0247 19.2629C20.2974 20.1077 19.3863 20.7747 18.3613 21.2127C17.3363 21.6508 16.2246 21.8483 15.1115 21.7901C13.9983 21.7319 12.9133 21.4196 11.9395 20.8771C11.8625 20.8341 11.7721 20.8219 11.6865 20.8431L8.3445 21.6711L9.2445 18.4711C9.25726 18.4259 9.26073 18.3786 9.25472 18.332C9.2487 18.2854 9.23332 18.2405 9.2095 18.2001C8.55761 17.0914 8.21022 15.8301 8.20249 14.5439C8.19476 13.2578 8.52697 11.9924 9.1655 10.876C9.80402 9.75949 10.7262 8.83153 11.8386 8.18603C12.9511 7.54053 14.2143 7.2004 15.5005 7.20007ZM12.5935 10.3261C12.4423 10.329 12.2933 10.3629 12.1557 10.4256C12.0181 10.4884 11.8948 10.5788 11.7935 10.6911C11.5364 10.9424 11.332 11.2425 11.1921 11.5736C11.0522 11.9048 10.9796 12.2605 10.9785 12.6201C11.0359 13.4648 11.3535 14.2711 11.8875 14.9281C11.8785 14.9161 12.0115 15.1091 12.1875 15.3421C12.4197 15.644 12.6673 15.9338 12.9295 16.2101C13.6603 17.0087 14.5446 17.6519 15.5295 18.1011C15.9217 18.2679 16.3222 18.4145 16.7295 18.5401C17.1991 18.6811 17.6948 18.7126 18.1785 18.6321C18.5049 18.57 18.8152 18.4421 19.0905 18.2561C19.4252 18.0768 19.6897 17.7901 19.8415 17.4421C19.9263 17.2114 19.9811 16.9707 20.0045 16.7261C20.0121 16.6349 20.0121 16.5432 20.0045 16.4521C20.0071 16.3554 19.9803 16.2602 19.9275 16.1791C19.7655 15.9131 19.5825 15.9061 19.3905 15.8111C19.2845 15.7581 18.9815 15.6111 18.6775 15.4661C18.3735 15.3211 18.1115 15.1931 17.9495 15.1361C17.8219 15.0787 17.6818 15.055 17.5425 15.0671C17.4492 15.0829 17.3602 15.1177 17.2809 15.1693C17.2016 15.2209 17.1338 15.2882 17.0815 15.3671C16.9815 15.5121 16.5885 15.9791 16.4685 16.1161L16.4295 16.0961C16.2805 16.0221 16.0985 15.9601 15.8295 15.8171C15.4783 15.6312 15.1506 15.404 14.8535 15.1401C14.4458 14.7621 14.0951 14.3268 13.8125 13.8481C13.8205 13.8381 13.8125 13.8481 13.8285 13.8331C13.9525 13.7111 14.0625 13.5651 14.1555 13.4581C14.2585 13.3338 14.3437 13.1958 14.4085 13.0481C14.4559 12.9428 14.4791 12.8281 14.4761 12.7126C14.4732 12.5972 14.4443 12.4838 14.3915 12.3811C14.3965 12.3911 14.3525 12.2931 14.3045 12.1811C14.2565 12.0691 14.1955 11.9211 14.1305 11.7651C14.0005 11.4531 13.8545 11.1021 13.7685 10.8971C13.6956 10.6839 13.5459 10.5057 13.3485 10.3971C13.2405 10.3468 13.1211 10.326 13.0025 10.3371C12.8745 10.3281 12.7335 10.3261 12.5935 10.3261ZM12.5935 11.0261C12.7275 11.0261 12.8595 11.0261 12.9705 11.0331C13.0815 11.0401 13.0775 11.0391 13.0555 11.0331C13.0335 11.0271 13.0635 11.0191 13.1285 11.1731C13.2135 11.3731 13.3595 11.7261 13.4895 12.0391C13.5545 12.1961 13.6155 12.3391 13.6645 12.4581C13.7135 12.5771 13.7395 12.6381 13.7705 12.6991C13.8005 12.7581 13.7975 12.7201 13.7875 12.7411C13.7484 12.8348 13.6955 12.9221 13.6305 13.0001C13.5175 13.1301 13.4025 13.2751 13.3415 13.3361C13.2485 13.4154 13.1764 13.5164 13.1315 13.6301C13.1036 13.7202 13.0949 13.8153 13.1061 13.909C13.1173 14.0027 13.1481 14.093 13.1965 14.1741C13.5229 14.7288 13.9315 15.2309 14.4085 15.6631C14.7469 15.9633 15.1198 16.2222 15.5195 16.4341C15.8285 16.5971 16.0805 16.6921 16.1365 16.7201C16.273 16.7979 16.4299 16.8327 16.5865 16.8201C16.7461 16.7951 16.8915 16.7139 16.9965 16.5911C17.1205 16.4501 17.4895 16.0291 17.6665 15.7701C17.6735 15.7701 17.6715 15.7701 17.7305 15.7921C17.7575 15.8021 18.0935 15.9521 18.3935 16.0921C18.6935 16.2321 18.9935 16.3831 19.0935 16.4321C19.2365 16.5031 19.3035 16.5491 19.3215 16.5491C19.3242 16.587 19.3242 16.6251 19.3215 16.6631C19.3029 16.8476 19.2613 17.029 19.1975 17.2031C19.0834 17.3947 18.9223 17.554 18.7295 17.6661C18.5319 17.7923 18.315 17.8855 18.0875 17.9421C17.7077 18.0078 17.3178 17.9845 16.9485 17.8741C16.5619 17.7556 16.1817 17.6171 15.8095 17.4591C14.9117 17.0458 14.1053 16.4577 13.4375 15.7291C13.192 15.4702 12.96 15.1989 12.7425 14.9161C12.5755 14.6991 12.5025 14.5861 12.4425 14.5061C12.0178 13.9601 11.752 13.3074 11.6745 12.6201C11.6633 12.346 11.7138 12.0729 11.8221 11.821C11.9304 11.569 12.0939 11.3445 12.3005 11.1641C12.3371 11.1217 12.382 11.0873 12.4324 11.0629C12.4828 11.0385 12.5376 11.0246 12.5935 11.0221V11.0261Z" fill="#1E2433" stroke="#1E2433" stroke-width="0.3"/>
</svg>
