<svg width="30" height="30" viewBox="0 0 30 30" fill="none" xmlns="http://www.w3.org/2000/svg">
<path d="M30 15C30 6.71573 23.2843 0 15 0C6.71573 0 0 6.71573 0 15C0 23.2843 6.71573 30 15 30C23.2843 30 30 23.2843 30 15Z" fill="#F7F9FD"/>
<path d="M22.0001 19.431C21.9991 19.6952 21.9393 19.9558 21.8251 20.194C21.7026 20.4545 21.5418 20.6951 21.3481 20.908C21.0322 21.2668 20.639 21.5492 20.1981 21.734C19.7646 21.9127 19.2999 22.0031 18.8311 22C18.0428 21.9854 17.2655 21.8116 16.5461 21.489C15.6922 21.1186 14.883 20.6527 14.1341 20.1C13.3194 19.5052 12.5506 18.85 11.8341 18.14C11.1257 17.4284 10.4721 16.6642 9.87908 15.854C9.33265 15.1117 8.87016 14.3112 8.50008 13.467C8.18176 12.7452 8.01173 11.9668 8.00008 11.178C7.99695 10.7157 8.08249 10.2571 8.25208 9.82701C8.43077 9.38216 8.70647 8.98279 9.05908 8.65801C9.24578 8.45644 9.471 8.29435 9.72143 8.18133C9.97186 8.06831 10.2424 8.00665 10.5171 8.00001C10.7134 7.99921 10.9075 8.04226 11.0851 8.12601C11.2745 8.21148 11.437 8.34702 11.5551 8.51801L13.1811 10.807C13.2934 10.9588 13.3873 11.1232 13.4611 11.297C13.5226 11.4312 13.5566 11.5764 13.5611 11.724C13.5597 11.9011 13.5088 12.0743 13.4141 12.224C13.306 12.4075 13.1739 12.5757 13.0211 12.724L12.4881 13.277C12.451 13.3134 12.4219 13.357 12.4026 13.4052C12.3833 13.4534 12.3743 13.5051 12.3761 13.557C12.3762 13.6114 12.3832 13.6655 12.3971 13.718C12.4181 13.774 12.4391 13.818 12.4531 13.858C12.6412 14.1782 12.8595 14.4795 13.1051 14.758C13.4201 15.122 13.7571 15.493 14.1221 15.864C14.4871 16.235 14.8651 16.578 15.2371 16.893C15.5141 17.138 15.8157 17.3539 16.1371 17.537C16.1721 17.551 16.2141 17.572 16.2631 17.593C16.3192 17.613 16.3785 17.6225 16.4381 17.621C16.4916 17.6221 16.5447 17.6121 16.5941 17.5917C16.6435 17.5712 16.6881 17.5406 16.7251 17.502L17.2581 16.977C17.4044 16.8223 17.5729 16.6902 17.7581 16.585C17.9074 16.4896 18.0809 16.4386 18.2581 16.438C18.4053 16.4399 18.5508 16.4708 18.6861 16.529C18.8588 16.6028 19.0233 16.6943 19.1771 16.802L21.4971 18.447C21.6656 18.5568 21.7994 18.7121 21.8831 18.895C21.9562 19.0645 21.9959 19.2465 22.0001 19.431Z" stroke="#1E2433" stroke-width="1.2"/>
</svg>
