<svg width="30" height="29" viewBox="0 0 30 29" fill="none" xmlns="http://www.w3.org/2000/svg">
<path d="M14.9407 28.3729C22.5008 28.3729 28.6272 22.2466 28.6272 14.6864C28.6272 7.12631 22.5008 1 14.9407 1C7.38058 1 1.25427 7.12631 1.25427 14.6864C1.25427 22.2466 7.38058 28.3729 14.9407 28.3729Z" stroke="#1E2433" stroke-miterlimit="10"/>
<path d="M20.5681 12.3917C20.5681 11.8738 20.4376 11.4854 20.2418 10.9676C20.1113 10.5792 19.8503 10.2556 19.5241 9.99663C19.1979 9.73771 18.9369 9.47878 18.5454 9.28459C18.1539 9.0904 17.632 8.96094 17.11 8.96094C16.5228 8.96094 16.327 8.96094 14.8916 8.96094C13.391 8.96094 13.2605 8.96094 12.6733 8.96094C12.1513 8.96094 11.7598 9.0904 11.2378 9.28459C10.8464 9.41405 10.5201 9.67298 10.2592 9.99663C9.93292 10.3203 9.73718 10.5792 9.54144 10.9676C9.3457 11.356 9.21521 11.8738 9.21521 12.3917C9.21521 12.9743 9.21521 13.1684 9.21521 14.5925C9.21521 16.0166 9.21521 16.2108 9.21521 16.7934C9.21521 17.3112 9.3457 17.6996 9.54144 18.2175C9.86767 18.9942 10.4549 19.6415 11.2378 19.9005C11.6293 20.0947 12.1513 20.2241 12.6733 20.2241C13.2605 20.2241 13.4562 20.2241 14.8916 20.2241C16.327 20.2241 16.5228 20.2241 17.11 20.2241C17.632 20.2241 18.0234 20.0947 18.5454 19.9005C19.3284 19.5768 19.9808 18.9942 20.2418 18.2175C20.4376 17.8291 20.5681 17.3112 20.5681 16.7934C20.5681 16.2108 20.5681 16.0166 20.5681 14.5925C20.5681 13.1037 20.5681 12.9743 20.5681 12.3917ZM19.1326 14.5925C19.1326 16.0813 19.1326 16.2108 19.1326 16.7934C19.1326 17.117 19.0021 17.376 18.9369 17.6996C18.7412 18.088 18.4149 18.4117 18.0234 18.6058C17.6972 18.7353 17.4362 18.8 17.11 18.8C16.5228 18.8 16.3923 18.8 14.8916 18.8C13.391 18.8 13.2605 18.8 12.6733 18.8C12.347 18.8 12.086 18.6706 11.7598 18.6058C11.3683 18.4117 11.0421 18.088 10.8464 17.6996C10.7159 17.376 10.6506 17.117 10.6506 16.7934C10.6506 16.2108 10.6506 16.0813 10.6506 14.5925C10.6506 13.1684 10.6506 12.9743 10.6506 12.3917C10.6506 12.068 10.7811 11.8091 10.8464 11.4854C11.0421 11.0971 11.3683 10.7734 11.7598 10.5792C12.086 10.4497 12.347 10.385 12.6733 10.385C13.1952 10.385 13.391 10.385 14.8916 10.385C16.327 10.385 16.5228 10.385 17.11 10.385C17.4362 10.385 17.6972 10.5145 18.0234 10.5792C18.4149 10.7734 18.7412 11.0971 18.9369 11.4854C19.0674 11.8091 19.1326 12.068 19.1326 12.3917C19.1326 12.9743 19.1326 13.1684 19.1326 14.5925Z" fill="#1E2433"/>
<path d="M14.9574 12.1992C13.6525 12.1992 12.5433 13.2996 12.5433 14.5943C12.5433 15.8889 13.6525 16.9893 14.9574 16.9893C16.2624 16.9893 17.3715 15.8889 17.3715 14.5943C17.3715 13.2996 16.2624 12.1992 14.9574 12.1992ZM14.9574 15.7594C14.3702 15.7594 13.783 15.2416 13.783 14.5943C13.783 13.947 14.305 13.4291 14.9574 13.4291C15.6752 13.4291 16.1319 13.947 16.1319 14.5943C16.1319 15.1768 15.5447 15.7594 14.9574 15.7594Z" fill="#1E2433"/>
<path d="M17.7618 11.0977C17.3704 11.0977 16.9789 11.4213 16.9789 11.8744C16.9789 12.2628 17.3051 12.6512 17.7618 12.6512C18.2838 12.6512 18.5448 12.3275 18.5448 11.8744C18.4143 11.3566 18.1533 11.0977 17.7618 11.0977Z" fill="#1E2433"/>
</svg>
