<svg width="29" height="29" viewBox="0 0 29 29" fill="none" xmlns="http://www.w3.org/2000/svg">
<path d="M14.195 1C6.63486 1 0.508545 7.12631 0.508545 14.6864C0.508545 22.2466 6.63486 28.3729 14.195 28.3729C21.7551 28.3729 27.8814 22.1814 27.8814 14.6864C27.8814 7.19148 21.6899 1 14.195 1Z" stroke="#1E2433" stroke-miterlimit="10"/>
<path d="M19.1035 12.1316C19.1035 12.1964 19.1035 12.3258 19.1035 12.52C19.1035 15.8213 16.5589 19.6404 11.9264 19.6404C10.4258 19.6404 9.18609 19.1873 8.0769 18.54C8.27264 18.54 8.46838 18.54 8.72937 18.54C9.9038 18.54 11.013 18.1516 11.8612 17.4396C10.752 17.4396 9.83855 16.7275 9.44707 15.6919C9.64281 15.6919 9.70806 15.6919 9.9038 15.6919C10.1648 15.6919 10.3605 15.6919 10.5563 15.6271C9.38183 15.4329 8.53363 14.3325 8.53363 13.1673C8.9251 13.3615 9.25134 13.4263 9.64281 13.4263C8.99035 12.9732 8.53363 12.2611 8.53363 11.3549C8.53363 10.9018 8.59887 10.4486 8.9251 10.0603C10.0995 11.6138 12.0569 12.5848 14.0796 12.7142C14.0796 12.52 14.0796 12.3258 14.0796 12.1964C14.0796 10.837 15.1887 9.67188 16.6242 9.67188C17.3419 9.67188 17.9943 9.9308 18.451 10.5134C18.973 10.4486 19.5602 10.125 20.017 9.86607C19.8212 10.3839 19.495 10.9665 18.9078 11.2254C19.4297 11.1607 19.8865 11.0312 20.4084 10.837C20.017 11.2901 19.5602 11.808 19.1035 12.1316Z" fill="#1E2433"/>
</svg>
