<svg width="23" height="23" viewBox="0 0 23 23" fill="none" xmlns="http://www.w3.org/2000/svg">
<path d="M22.4258 1.51172V17.7617C22.4258 18.0104 22.3271 18.2488 22.1512 18.4246C21.9754 18.6004 21.737 18.6992 21.4883 18.6992C21.2397 18.6992 21.0012 18.6004 20.8254 18.4246C20.6496 18.2488 20.5508 18.0104 20.5508 17.7617V3.77422L2.15083 22.1742C1.97311 22.3398 1.73806 22.43 1.49518 22.4257C1.2523 22.4214 1.02057 22.323 0.848806 22.1512C0.67704 21.9795 0.57865 21.7477 0.574365 21.5049C0.57008 21.262 0.660233 21.0269 0.825833 20.8492L19.2258 2.44922H5.23833C4.98969 2.44922 4.75124 2.35045 4.57542 2.17463C4.39961 1.99882 4.30083 1.76036 4.30083 1.51172C4.30083 1.26308 4.39961 1.02462 4.57542 0.848806C4.75124 0.672991 4.98969 0.574219 5.23833 0.574219H21.4883C21.737 0.574219 21.9754 0.672991 22.1512 0.848806C22.3271 1.02462 22.4258 1.26308 22.4258 1.51172Z" fill="#11181C"/>
</svg>
