<svg width="109" height="109" viewBox="0 0 109 109" fill="none" xmlns="http://www.w3.org/2000/svg">
<path d="M109 54.5C109 84.5995 84.5995 109 54.5 109C24.4005 109 0 84.5995 0 54.5C0 24.4005 24.4005 0 54.5 0C84.5995 0 109 24.4005 109 54.5Z" fill="#F9FAFA"/>
<path d="M81.4767 47.3747C77.711 32.3058 62.4425 23.1429 47.3736 26.9086C32.3048 30.6744 23.1418 45.9429 26.9075 61.0117C30.6733 76.0806 45.9418 85.2436 61.0106 81.4778C76.0795 77.712 85.2425 62.4436 81.4767 47.3747Z" fill="#11181C"/>
<path d="M39.2994 54.1602L44.3737 53.3649C48.9123 52.6535 52.4925 49.1285 53.2745 44.6016L54.1487 39.5402L54.944 44.6146C55.6554 49.1532 59.1803 52.7334 63.7072 53.5154L68.7686 54.3896L63.6943 55.1849C59.1557 55.8962 55.5754 59.4212 54.7935 63.9481L53.9193 69.0096L53.124 63.9352C52.4126 59.3966 48.8877 55.8163 44.3607 55.0344L39.2994 54.1602Z" fill="#F9FAFA"/>
<path d="M55.7779 94.9476L55.4628 103.14L54.4566 103.102L54.5969 99.4541L50.1661 99.2885L50.0258 102.937L49.0196 102.899L49.3347 94.7067L50.3409 94.7443L50.2 98.4084L54.6308 98.5741L54.7717 94.91L55.7779 94.9476Z" fill="#11181C"/>
<path d="M37.5856 96.071C37.8362 95.2424 38.2045 94.571 38.6906 94.0566C39.1767 93.5423 39.7338 93.1993 40.362 93.0275C40.9902 92.8557 41.6441 92.8697 42.3237 93.0695C43.0034 93.2693 43.5583 93.6107 43.9885 94.0936C44.4187 94.5765 44.6942 95.1643 44.8152 95.8571C44.9361 96.5499 44.8713 97.3105 44.6207 98.1391C44.3701 98.9677 44.0017 99.6392 43.5157 100.153C43.0296 100.668 42.4725 101.011 41.8443 101.183C41.2161 101.354 40.5622 101.34 39.8825 101.141C39.2029 100.941 38.648 100.599 38.2178 100.117C37.7876 99.6337 37.5121 99.0458 37.3911 98.3531C37.2701 97.6603 37.335 96.8996 37.5856 96.071ZM38.5195 96.3456C38.3137 97.0258 38.2555 97.6339 38.3448 98.1697C38.4315 98.7048 38.6344 99.1502 38.9534 99.5057C39.2698 99.8605 39.6692 100.109 40.1517 100.251C40.6342 100.392 41.1077 100.401 41.5721 100.276C42.0339 100.15 42.451 99.8865 42.8234 99.4863C43.1933 99.0854 43.4811 98.5449 43.6868 97.8646C43.8926 97.1843 43.9521 96.5767 43.8654 96.0415C43.776 95.5057 43.5732 95.0603 43.2568 94.7056C42.9378 94.35 42.5371 94.1013 42.0546 93.9595C41.5721 93.8176 41.0999 93.8097 40.6381 93.9357C40.1737 94.061 39.7566 94.3241 39.3867 94.725C39.0143 95.1251 38.7252 95.6653 38.5195 96.3456Z" fill="#11181C"/>
<path d="M27.5953 90.7373C28.0475 89.9965 28.5739 89.4367 29.1747 89.0581C29.7754 88.6794 30.4017 88.4841 31.0535 88.4721C31.7053 88.4601 32.335 88.6343 32.9427 88.9948C33.5504 89.3553 34.0015 89.8222 34.296 90.3956C34.5905 90.969 34.7088 91.606 34.6508 92.3066C34.5928 93.0072 34.3377 93.728 33.8855 94.4688C33.4333 95.2097 32.9068 95.7694 32.3061 96.1481C31.7054 96.5268 31.0791 96.7221 30.4273 96.7341C29.7755 96.7461 29.1457 96.5718 28.5381 96.2114C27.9304 95.8509 27.4793 95.3839 27.1848 94.8106C26.8902 94.2372 26.772 93.6002 26.83 92.8996C26.888 92.1989 27.1431 91.4782 27.5953 90.7373ZM28.4303 91.2327C28.059 91.8409 27.8489 92.4155 27.7999 92.9564C27.7486 93.4959 27.8325 93.977 28.0515 94.3997C28.2683 94.8211 28.5923 95.1597 29.0237 95.4156C29.4551 95.6715 29.9116 95.7959 30.393 95.7887C30.8721 95.7802 31.3425 95.6279 31.8044 95.3319C32.2639 95.0345 32.6793 94.5817 33.0505 93.9735C33.4217 93.3652 33.633 92.7914 33.6843 92.2518C33.7333 91.7109 33.6494 91.2298 33.4327 90.8085C33.2137 90.3858 32.8884 90.0465 32.457 89.7905C32.0256 89.5346 31.5704 89.4109 31.0913 89.4195C30.6098 89.4267 30.1394 89.5789 29.6799 89.8763C29.218 90.1723 28.8015 90.6244 28.4303 91.2327Z" fill="#11181C"/>
<path d="M21.0907 90.8816L20.2634 90.0221L23.325 83.3168L23.258 83.2472L16.3056 85.9105L15.4783 85.0511L21.5103 79.4078L22.1587 80.0815L17.5758 84.369L17.6317 84.4271L24.0034 81.9979L24.6295 82.6483L21.8354 88.7942L21.8913 88.8522L26.4742 84.5647L27.1226 85.2383L21.0907 90.8816Z" fill="#11181C"/>
<path d="M19.2816 76.0899L19.7862 77.0041L11.0224 78.2783L10.5256 77.3782L16.3705 70.8156L16.8751 71.7298L11.9141 77.1802L11.9451 77.2365L19.2816 76.0899ZM16.242 77.2829L14.2082 73.598L14.9928 73.1771L17.0267 76.862L16.242 77.2829Z" fill="#11181C"/>
<path d="M5.50545 63.7052L13.5513 61.6338L13.7975 62.5634L8.62521 68.5121L8.64573 68.5896L14.963 66.9632L15.2174 67.9238L7.17155 69.9952L6.92533 69.0656L12.1093 63.0973L12.0888 63.0199L5.75578 64.6503L5.50545 63.7052Z" fill="#11181C"/>
<path d="M13.248 50.372L12.9461 52.8843L4.68817 51.92L5.00342 49.2963C5.09831 48.5066 5.34483 47.8501 5.74298 47.3269C6.13844 46.8034 6.66195 46.4278 7.31352 46.2002C7.96239 45.9724 8.71424 45.9083 9.56907 46.0082C10.4293 46.1086 11.1517 46.3462 11.7364 46.7208C12.3183 47.0951 12.7413 47.5906 13.0052 48.2073C13.2664 48.8236 13.3473 49.5452 13.248 50.372ZM12.1775 51.7949L12.3533 50.332C12.4341 49.6589 12.3695 49.0857 12.1592 48.6123C11.9489 48.139 11.6136 47.7653 11.1531 47.4911C10.6927 47.217 10.1265 47.0407 9.45444 46.9622C8.78778 46.8843 8.20097 46.9247 7.694 47.0831C7.18434 47.2413 6.77485 47.5186 6.46552 47.9151C6.1535 48.3114 5.95928 48.8275 5.88286 49.4635L5.69371 51.0377L12.1775 51.7949Z" fill="#11181C"/>
<path d="M7.03221 39.8065L14.9818 42.2122L14.6863 43.1612L6.73671 40.7555L7.03221 39.8065Z" fill="#11181C"/>
<path d="M13.709 31.1723C13.4253 31.1253 13.1537 31.1161 12.894 31.1448C12.6332 31.1698 12.388 31.2346 12.1584 31.339C11.9301 31.441 11.7216 31.5834 11.5329 31.7662C11.3442 31.9489 11.1802 32.1715 11.0408 32.4339C10.8123 32.8643 10.7173 33.3137 10.7556 33.7823C10.794 34.251 10.9774 34.7025 11.3058 35.1371C11.6342 35.5716 12.1173 35.9535 12.7553 36.2827C13.3932 36.612 13.9875 36.7846 14.5381 36.8007C15.0887 36.8168 15.5721 36.7033 15.9884 36.4602C16.4046 36.2172 16.732 35.8711 16.9705 35.4219C17.1915 35.0057 17.2961 34.5929 17.2845 34.1832C17.2717 33.77 17.1469 33.3893 16.9101 33.0412C16.6722 32.6895 16.3278 32.3973 15.8769 32.1646L16.0776 31.9247L14.9176 34.1094L14.1262 33.7009L15.595 30.9347L16.3864 31.3431C16.9932 31.6563 17.453 32.0562 17.7659 32.543C18.08 33.0274 18.2419 33.5568 18.2517 34.1311C18.2603 34.7019 18.1114 35.2757 17.8051 35.8526C17.4636 36.4957 17.0101 36.9815 16.4445 37.3101C15.8802 37.6364 15.2428 37.7894 14.5325 37.7692C13.8234 37.7467 13.0803 37.5349 12.3033 37.1339C11.7206 36.8331 11.2374 36.4859 10.8537 36.0921C10.4689 35.6947 10.1876 35.2694 10.0097 34.8161C9.83175 34.3628 9.75821 33.8971 9.78902 33.419C9.81984 32.9409 9.95891 32.469 10.2062 32.0032C10.4096 31.6202 10.6579 31.2935 10.9512 31.0232C11.2433 30.7492 11.5652 30.5373 11.9167 30.3874C12.2671 30.2338 12.6362 30.1457 13.0241 30.123C13.4096 30.099 13.7986 30.1462 14.1911 30.2644L13.709 31.1723Z" fill="#11181C"/>
<path d="M15.5656 24.1173L22.1007 29.1868L21.478 29.967L14.9429 24.8975L15.5656 24.1173Z" fill="#11181C"/>
<path d="M19.1815 21.2502L18.5837 20.5959L23.2179 16.481L23.8157 17.1353L21.8727 18.8606L26.8401 24.2978L26.0919 24.9622L21.1245 19.525L19.1815 21.2502Z" fill="#11181C"/>
<path d="M31.8776 20.4464L30.953 20.9488L29.6127 12.316L30.523 11.8213L37.2114 17.5477L36.2869 18.0502L30.7314 13.1891L30.6745 13.22L31.8776 20.4464ZM30.6508 17.4563L34.3774 15.4312L34.8087 16.2024L31.082 18.2276L30.6508 17.4563Z" fill="#11181C"/>
<path d="M40.1965 16.4566L37.8355 8.59581L38.8011 8.31395L40.9084 15.3303L44.6148 14.2483L44.8685 15.0927L40.1965 16.4566Z" fill="#11181C"/>
<path d="M53.1603 14.0421L53.6837 5.86022L54.6886 5.92269L54.4556 9.56618L58.8808 9.84127L59.1138 6.19778L60.1188 6.26026L59.5955 14.4421L58.5905 14.3797L58.8245 10.7202L54.3994 10.4451L54.1653 14.1046L53.1603 14.0421Z" fill="#11181C"/>
<path d="M71.3755 13.3687C71.1039 14.1908 70.7186 14.8529 70.2196 15.3551C69.7206 15.8572 69.155 16.1864 68.5226 16.3426C67.8902 16.4988 67.2369 16.4686 66.5625 16.2521C65.8882 16.0356 65.3421 15.6806 64.9244 15.1872C64.5066 14.6938 64.2461 14.0993 64.1428 13.4038C64.0395 12.7083 64.1236 11.9494 64.3952 11.1273C64.6668 10.3052 65.0521 9.64302 65.5511 9.14088C66.0501 8.63873 66.6158 8.30956 67.2482 8.15337C67.8805 7.99717 68.5339 8.02734 69.2082 8.24387C69.8826 8.4604 70.4286 8.81536 70.8464 9.30875C71.2642 9.80215 71.5247 10.3966 71.628 11.0921C71.7313 11.7877 71.6471 12.5465 71.3755 13.3687ZM70.4489 13.0711C70.6719 12.3962 70.7456 11.7897 70.6699 11.2518C70.5968 10.7147 70.4054 10.2645 70.0955 9.90122C69.7882 9.53873 69.3952 9.28063 68.9165 9.1269C68.4378 8.97318 67.9647 8.95319 67.4972 9.06691C67.0323 9.18146 66.6087 9.43414 66.2262 9.82494C65.8463 10.2166 65.5448 10.7499 65.3218 11.4248C65.0988 12.0998 65.0239 12.7058 65.097 13.2429C65.1726 13.7808 65.3641 14.231 65.6714 14.5935C65.9812 14.9568 66.3755 15.2153 66.8543 15.3691C67.333 15.5228 67.8048 15.5424 68.2697 15.4278C68.7371 15.3141 69.1608 15.0614 69.5407 14.6698C69.9232 14.279 70.2259 13.7461 70.4489 13.0711Z" fill="#11181C"/>
<path d="M81.2271 18.9476C80.7562 19.677 80.2156 20.2236 79.6055 20.5873C78.9953 20.951 78.3642 21.1308 77.7123 21.1267C77.0604 21.1225 76.4353 20.9328 75.837 20.5574C75.2387 20.182 74.7996 19.7041 74.5197 19.1236C74.2399 18.5431 74.1379 17.9034 74.2137 17.2044C74.2895 16.5055 74.5628 15.7913 75.0337 15.0618C75.5046 14.3323 76.0451 13.7858 76.6553 13.4221C77.2655 13.0584 77.8965 12.8786 78.5484 12.8827C79.2003 12.8868 79.8255 13.0766 80.4238 13.452C81.0221 13.8274 81.4612 14.3053 81.741 14.8858C82.0209 15.4663 82.1229 16.106 82.0471 16.8049C81.9713 17.5039 81.698 18.2181 81.2271 18.9476ZM80.4049 18.4318C80.7915 17.8329 81.0162 17.2637 81.0789 16.7242C81.1439 16.1861 81.0723 15.703 80.8641 15.2751C80.6581 14.8485 80.3428 14.502 79.918 14.2355C79.4932 13.969 79.0401 13.8334 78.5587 13.8286C78.0795 13.8253 77.6053 13.9659 77.1361 14.2504C76.6692 14.5363 76.2424 14.9787 75.8558 15.5776C75.4692 16.1765 75.2434 16.745 75.1784 17.2831C75.1157 17.8226 75.1873 18.3056 75.3933 18.7322C75.6015 19.1602 75.918 19.5074 76.3428 19.7739C76.7675 20.0404 77.2195 20.1753 77.6987 20.1786C78.1801 20.1833 78.6543 20.0427 79.1212 19.7568C79.5904 19.4723 80.0184 19.0306 80.4049 18.4318Z" fill="#11181C"/>
<path d="M87.7333 18.9641L88.5385 19.8438L85.3072 26.4713L85.3725 26.5426L92.3904 24.0519L93.1956 24.9316L87.022 30.4239L86.3909 29.7345L91.0814 25.5616L91.027 25.5021L84.5955 27.7731L83.9862 27.1074L86.9357 21.0325L86.8813 20.9731L82.1908 25.146L81.5597 24.4565L87.7333 18.9641Z" fill="#11181C"/>
<path d="M89.1656 33.796L88.6844 32.8696L97.4778 31.8123L97.9516 32.7245L91.9416 39.1405L91.4604 38.2141L96.5586 32.8881L96.5289 32.8311L89.1656 33.796ZM92.2346 32.6784L94.1741 36.4124L93.379 36.8138L91.4395 33.0798L92.2346 32.6784Z" fill="#11181C"/>
<path d="M102.622 46.5172L94.5265 48.3891L94.304 47.4537L99.626 41.6347L99.6074 41.5567L93.2508 43.0264L93.0209 42.0599L101.117 40.1881L101.339 41.1234L96.0053 46.9617L96.0238 47.0396L102.396 45.5663L102.622 46.5172Z" fill="#11181C"/>
<path d="M94.5433 59.6548L94.909 57.1508L103.14 58.319L102.758 60.934C102.643 61.7211 102.38 62.3713 101.969 62.8845C101.56 63.3981 101.027 63.7606 100.37 63.972C99.7153 64.1838 98.9621 64.2292 98.1101 64.1083C97.2527 63.9866 96.5366 63.7312 95.9616 63.3423C95.3893 62.9537 94.9791 62.4479 94.731 61.8249C94.4855 61.2023 94.4229 60.479 94.5433 59.6548ZM95.6496 58.2589L95.4367 59.7169C95.3388 60.3878 95.3888 60.9625 95.587 61.4409C95.7851 61.9193 96.1109 62.3012 96.5642 62.5866C97.0175 62.872 97.5791 63.0623 98.249 63.1573C98.9134 63.2516 99.5011 63.2259 100.012 63.08C100.525 62.9345 100.942 62.6673 101.261 62.2786C101.583 61.8902 101.79 61.379 101.883 60.7451L102.112 59.1761L95.6496 58.2589Z" fill="#11181C"/>
<path d="M100.488 70.3707L92.6025 67.7692L92.9221 66.8278L100.808 69.4293L100.488 70.3707Z" fill="#11181C"/>
<path d="M93.5942 78.8372C93.8765 78.8912 94.1479 78.907 94.4082 78.8848C94.6695 78.8662 94.9163 78.8075 95.1485 78.7088C95.3793 78.6125 95.5914 78.4753 95.7847 78.2972C95.978 78.1192 96.1476 77.9007 96.2936 77.6418C96.533 77.2173 96.6394 76.7703 96.613 76.3009C96.5865 75.8315 96.4147 75.3755 96.0974 74.933C95.7802 74.4905 95.3069 74.0967 94.6776 73.7519C94.0482 73.407 93.4585 73.2197 92.9085 73.19C92.3585 73.1604 91.8723 73.2618 91.45 73.4945C91.0277 73.7272 90.6916 74.0651 90.4417 74.5083C90.2103 74.9188 90.0951 75.329 90.0964 75.7388C90.0986 76.1522 90.2137 76.5359 90.4416 76.8897C90.6705 77.2472 91.0073 77.5478 91.4521 77.7916L91.2454 78.0264L92.4606 75.8711L93.2414 76.299L91.7027 79.028L90.9219 78.6002C90.3233 78.2721 89.8738 77.861 89.5734 77.3666C89.2717 76.8745 89.1233 76.3413 89.1281 75.7669C89.1341 75.1962 89.2975 74.6262 89.6184 74.0571C89.9761 73.4226 90.4418 72.9481 91.0156 72.6336C91.5881 72.3214 92.2291 72.1842 92.9387 72.2219C93.647 72.262 94.3844 72.4921 95.151 72.9121C95.7259 73.2272 96.2002 73.5863 96.5737 73.9895C96.9482 74.3962 97.2187 74.8284 97.385 75.2859C97.5513 75.7434 97.613 76.2108 97.57 76.688C97.5271 77.1652 97.376 77.6335 97.117 78.093C96.9039 78.4709 96.6473 78.7913 96.3473 79.0544C96.0483 79.321 95.7212 79.5249 95.3659 79.6661C95.0117 79.8109 94.6405 79.8899 94.2522 79.903C93.8662 79.9175 93.4785 79.8607 93.0892 79.7329L93.5942 78.8372Z" fill="#11181C"/>
<path d="M91.5588 85.844L85.1546 80.6146L85.7969 79.85L92.2011 85.0795L91.5588 85.844Z" fill="#11181C"/>
<path d="M87.8711 88.6208L88.452 89.2897L83.7147 93.2888L83.1337 92.6199L85.1199 90.9432L80.2924 85.3849L81.0573 84.7392L85.8848 90.2975L87.8711 88.6208Z" fill="#11181C"/>
<path d="M75.1586 89.1106L76.0956 88.6312L77.2159 97.2944L76.2933 97.7664L69.7526 91.8765L70.6897 91.3971L76.1198 96.394L76.1775 96.3645L75.1586 89.1106ZM76.3089 92.13L72.5319 94.0625L72.1204 93.2808L75.8974 91.3484L76.3089 92.13Z" fill="#11181C"/>
<path d="M66.7408 92.8935L68.9011 100.81L67.9287 101.068L66.0004 94.0019L62.2676 94.9919L62.0356 94.1415L66.7408 92.8935Z" fill="#11181C"/>
</svg>
