<svg width="22" height="23" viewBox="0 0 22 23" fill="none" xmlns="http://www.w3.org/2000/svg">
<path d="M21.9258 1.51172V17.7617C21.9258 18.0104 21.8271 18.2488 21.6512 18.4246C21.4754 18.6004 21.237 18.6992 20.9883 18.6992C20.7397 18.6992 20.5012 18.6004 20.3254 18.4246C20.1496 18.2488 20.0508 18.0104 20.0508 17.7617V3.77422L1.65083 22.1742C1.47311 22.3398 1.23806 22.43 0.995181 22.4257C0.752304 22.4214 0.520572 22.323 0.348806 22.1512C0.17704 21.9795 0.0786501 21.7477 0.0743648 21.5049C0.0700795 21.262 0.160233 21.0269 0.325833 20.8492L18.7258 2.44922H4.73833C4.48969 2.44922 4.25124 2.35045 4.07542 2.17463C3.89961 1.99882 3.80083 1.76036 3.80083 1.51172C3.80083 1.26308 3.89961 1.02462 4.07542 0.848806C4.25124 0.672991 4.48969 0.574219 4.73833 0.574219H20.9883C21.237 0.574219 21.4754 0.672991 21.6512 0.848806C21.8271 1.02462 21.9258 1.26308 21.9258 1.51172Z" fill="#11181C"/>
</svg>
