<svg width="56" height="30" viewBox="0 0 56 30" fill="none" xmlns="http://www.w3.org/2000/svg">
<path d="M51.3207 25.142C52.6547 23.7724 53.6664 22.1965 54.358 20.4206C55.0517 18.6447 55.3975 16.742 55.3932 14.7382C55.3932 12.7344 55.0282 10.8316 54.3004 9.05575C53.5704 7.27986 52.5266 5.68887 51.1691 4.31933C49.7839 2.94549 48.1809 1.86834 46.3581 1.14594C44.5353 0.421399 42.5908 0 40.531 0H29.8439V20.0873H36.2109V6.42846H40.531C41.7626 6.42846 42.896 6.71441 43.927 7.12076C44.9579 7.52711 45.848 8.17425 46.6035 8.8988C47.3591 9.62119 47.9418 10.4833 48.3602 11.4874C48.7764 12.4893 48.9813 13.5707 48.9813 14.736C48.9813 15.9551 48.7743 17.0666 48.3602 18.0964C47.944 19.122 47.3656 19.982 46.6228 20.7194C45.8842 21.4547 44.9899 21.9815 43.9462 22.3835C42.9003 22.792 41.7626 22.8995 40.531 22.8995H26.6614V0H19.8973V10.0426H6.36706V0H0V29.3258H6.36706V16.4711H19.8952V29.3258H40.531C42.6441 29.3258 44.6548 29.0506 46.5673 28.2637C47.4744 27.881 48.3282 27.5413 49.135 27.0081C49.9397 26.4749 50.6654 25.8558 51.3207 25.142Z" fill="#F7F9FD"/>
</svg>
