<svg width="34" height="18" viewBox="0 0 34 18" fill="none" xmlns="http://www.w3.org/2000/svg">
<path d="M31.5003 15.432C32.3191 14.5913 32.9401 13.624 33.3646 12.534C33.7904 11.444 34.0026 10.2761 34 9.04619C34 7.81627 33.7759 6.64838 33.3292 5.55836C32.8811 4.46833 32.2405 3.49179 31.4073 2.65117C30.557 1.80792 29.5731 1.14677 28.4543 0.703373C27.3354 0.258652 26.1419 0 24.8777 0H18.318V12.3295H22.226V3.94575H24.8777C25.6336 3.94575 26.3293 4.12126 26.9621 4.37067C27.5949 4.62009 28.1412 5.0173 28.6049 5.46202C29.0687 5.90542 29.4264 6.4346 29.6832 7.05088C29.9386 7.66583 30.0644 8.32961 30.0644 9.04486C30.0644 9.7931 29.9373 10.4754 29.6832 11.1075C29.4277 11.7369 29.0727 12.2648 28.6167 12.7174C28.1634 13.1688 27.6145 13.4921 26.9739 13.7389C26.3319 13.9896 25.6336 14.0556 24.8777 14.0556H16.3646V0H12.2128V6.16407H3.90806V0H0V18H3.90806V10.1098H12.2115V18H24.8777C26.1747 18 27.4088 17.8311 28.5827 17.3481C29.1395 17.1132 29.6635 16.9047 30.1587 16.5774C30.6526 16.2501 31.0981 15.8701 31.5003 15.432Z" fill="#F7F9FD"/>
</svg>
