<svg width="29" height="29" viewBox="0 0 29 29" fill="none" xmlns="http://www.w3.org/2000/svg">
<path d="M14.3136 1C6.75351 1 0.627197 7.12631 0.627197 14.6864C0.627197 22.2466 6.75351 28.3729 14.3136 28.3729C21.8086 28.3729 28.0001 22.1814 28.0001 14.6864C28.0001 7.19148 21.8086 1 14.3136 1Z" stroke="#1E2433" stroke-miterlimit="10"/>
<path d="M20.0035 17.3754C19.873 17.958 19.4163 18.4759 18.6986 18.5406C17.1979 18.67 15.7625 18.7348 14.2619 18.7348C12.7612 18.7348 11.3258 18.7348 9.82512 18.5406C9.2379 18.4111 8.71593 18.0227 8.52019 17.3754C8.32445 16.4692 8.32446 15.563 8.32446 14.592C8.32446 13.6858 8.32445 12.7148 8.52019 11.8086C8.65069 11.226 9.10741 10.7081 9.82512 10.6434C11.3258 10.5139 12.7612 10.4492 14.2619 10.4492C15.7625 10.4492 17.1979 10.4492 18.6986 10.6434C19.2858 10.7729 19.8078 11.1613 20.0035 11.8086C20.1993 12.7148 20.1993 13.621 20.1993 14.592C20.2645 15.4982 20.1993 16.4692 20.0035 17.3754Z" fill="#1E2433"/>
<path d="M13.3479 16.082L16.4797 14.2695L13.3479 12.457V16.082Z" fill="#F7F9FD"/>
</svg>
